<svg xmlns="http://www.w3.org/2000/svg" viewBox="0 0 240 180"><rect width="240" height="180" rx="18" fill="#eff4eb"/><ellipse cx="119" cy="165" rx="91" ry="7" fill="#dce6db"/><g fill="none" stroke="#285540" stroke-width="3" stroke-linecap="round" stroke-linejoin="round"><circle cx="69" cy="60" r="19" fill="#e8bf98"/><path d="M50 54q4-26 34-10l5 15-12-8-26 7" fill="#4e5f55"/><path d="M43 98q26-27 51 0l10 52H33z" fill="#a8c7b2"/><path d="M55 149v13m28-13v13M44 101l-8 34m59-34 15 25"/><rect x="130" y="54" width="80" height="66" rx="5" fill="#dce7fa"/><path d="M140 108V68h56M146 97l13-15 13 9 16-18"/><circle cx="173" cy="142" r="19" fill="#f3d37d"/><path d="M173 123v8m0 22v8m-19-19h8m22 0h8"/></g></svg>